HIERARCHY
ROOT Hips
{
	OFFSET -0.001795 -0.223333 0.028219
	CHANNELS 6 Xposition Yposition Zposition Zrotation Yrotation Xrotation 
	JOINT LeftUpLeg
	{
		OFFSET 0.069520 -0.091406 -0.006815
		CHANNELS 3 Zrotation Yrotation Xrotation
		JOINT LeftLeg
		{
			OFFSET 0.034277 -0.375199 -0.004496
			CHANNELS 3 Zrotation Yrotation Xrotation
			JOINT LeftFoot
			{
				OFFSET -0.013596 -0.397961 -0.043693
				CHANNELS 3 Zrotation Yrotation Xrotation
				JOINT LeftToe
				{
					OFFSET 0.026358 -0.055791 0.119288
					CHANNELS 3 Zrotation Yrotation Xrotation
					End Site
					{
						OFFSET 0.000000 0.000000 0.000000
					}
				}
			}
		}
	}
	JOINT RightUpLeg
	{
		OFFSET -0.067670 -0.090522 -0.004320
		CHANNELS 3 Zrotation Yrotation Xrotation
		JOINT RightLeg
		{
			OFFSET -0.038290 -0.382569 -0.008850
			CHANNELS 3 Zrotation Yrotation Xrotation
			JOINT RightFoot
			{
				OFFSET 0.015774 -0.398415 -0.042312
				CHANNELS 3 Zrotation Yrotation Xrotation
				JOINT RightToe
				{
					OFFSET -0.025372 -0.048144 0.123348
					CHANNELS 3 Zrotation Yrotation Xrotation
					End Site
					{
						OFFSET 0.000000 0.000000 0.000000
					}
				}
			}
		}
	}
	JOINT Spine
	{
		OFFSET -0.002533 0.108963 -0.026696
		CHANNELS 3 Zrotation Yrotation Xrotation
		JOINT Spine1
		{
			OFFSET 0.005487 0.135180 0.001092
			CHANNELS 3 Zrotation Yrotation Xrotation
			JOINT Spine2
			{
				OFFSET 0.001457 0.052922 0.025425
				CHANNELS 3 Zrotation Yrotation Xrotation
				JOINT Neck
				{
					OFFSET -0.002778 0.213870 -0.042857
					CHANNELS 3 Zrotation Yrotation Xrotation
					JOINT Head
					{
						OFFSET 0.005152 0.064970 0.051349
						CHANNELS 3 Zrotation Yrotation Xrotation
						End Site
						{
							OFFSET 0.000000 0.000000 0.000000
						}
					}
				}
				JOINT LeftShoulder
				{
					OFFSET 0.078845 0.121749 -0.034090
					CHANNELS 3 Zrotation Yrotation Xrotation
					JOINT LeftArm
					{
						OFFSET 0.090977 0.030469 -0.008868
						CHANNELS 3 Zrotation Yrotation Xrotation
						JOINT LeftForeArm
						{
							OFFSET 0.259612 -0.012772 -0.027456
							CHANNELS 3 Zrotation Yrotation Xrotation
							JOINT LeftHand
							{
								OFFSET 0.249234 0.008986 -0.001171
								CHANNELS 3 Zrotation Yrotation Xrotation
								End Site
								{
									OFFSET 0.000000 0.000000 0.000000
								}
							}
						}
					}
				}
				JOINT RightShoulder
				{
					OFFSET -0.081759 0.118833 -0.038615
					CHANNELS 3 Zrotation Yrotation Xrotation
					JOINT RightArm
					{
						OFFSET -0.096012 0.032551 -0.009143
						CHANNELS 3 Zrotation Yrotation Xrotation
						JOINT RightForeArm
						{
							OFFSET -0.253742 -0.013329 -0.021401
							CHANNELS 3 Zrotation Yrotation Xrotation
							JOINT RightHand
							{
								OFFSET -0.255298 0.007772 -0.005559
								CHANNELS 3 Zrotation Yrotation Xrotation
								End Site
								{
									OFFSET 0.000000 0.000000 0.000000
								}
							}
						}
					}
				}
			}
		}
	}
}
MOTION
Frames: 13
Frame Time: 0.050000
-0.156765 0.914922 -0.032187 3.678841 9.092660 4.996647 11.834730 -0.494884 -13.981816 -4.385862 0.199586 15.926162 5.512997 15.026039 16.415881 0.000000 0.000000 0.000000 -14.796616 -0.735133 -18.478464 10.927130 -2.006414 8.240258 9.646939 8.866159 22.400553 0.000000 0.000000 0.000000 8.761404 -6.862640 41.411135 -3.322954 1.538712 -22.831852 -4.347863 6.974515 23.363434 18.019260 -4.477528 -36.604059 0.000000 0.000000 0.000000 -17.993636 -36.024314 15.321833 -28.170117 -50.377982 6.272594 94.262725 -57.029824 -58.127397 0.000000 0.000000 0.000000 23.807122 17.398407 12.715048 31.038330 56.002440 9.103239 -73.492726 38.537132 -21.696488 0.000000 0.000000 0.000000 
-0.174418 0.914377 -0.030024 3.791291 9.496808 5.059830 12.285752 -0.485066 -13.909650 -3.298230 -0.045477 15.417888 4.914985 14.457382 17.660288 0.000000 0.000000 0.000000 -13.766619 -0.623674 -19.102290 10.986576 -2.124970 9.314588 9.240172 8.752131 21.420578 0.000000 0.000000 0.000000 9.861967 -7.249083 40.658366 -3.705705 1.641046 -22.362213 -4.420038 7.025562 23.518199 18.130150 -4.629689 -36.016854 0.000000 0.000000 0.000000 -18.223278 -36.717877 15.689870 -27.767763 -50.840922 6.233345 96.107423 -55.916620 -58.601926 0.000000 0.000000 0.000000 23.258525 16.723437 12.241766 30.708928 55.304594 8.756432 -75.814849 39.775319 -23.506809 0.000000 0.000000 0.000000 
-0.189188 0.914663 -0.028283 4.055469 9.924863 5.254466 12.177499 -0.516874 -14.285360 -1.912726 -0.372708 15.432135 4.303934 13.938858 19.034134 0.000000 0.000000 0.000000 -13.084484 -0.584316 -20.092251 10.990579 -2.275540 10.846514 8.972377 8.504766 21.127141 0.000000 0.000000 0.000000 10.770128 -7.661467 40.390984 -3.747501 1.654237 -22.351859 -4.975862 6.779354 24.031428 17.842760 -4.348934 -36.675942 0.000000 0.000000 0.000000 -17.276798 -36.784296 15.546038 -26.419364 -52.882895 6.035593 96.791779 -53.485118 -56.584064 0.000000 0.000000 0.000000 22.168520 16.851483 12.042630 31.654783 55.951572 9.483818 -78.150269 41.114151 -25.448409 0.000000 0.000000 0.000000 
-0.200707 0.915605 -0.026830 4.317983 9.721827 5.713126 12.125719 -0.523336 -13.884509 -1.050423 -0.480983 13.968419 4.056409 13.819115 20.273946 0.000000 0.000000 0.000000 -12.530063 -0.510141 -21.185187 10.886445 -2.323356 11.813117 9.058129 8.470959 21.421958 0.000000 0.000000 0.000000 10.907253 -7.551514 39.730586 -3.685068 1.636398 -22.214865 -4.940711 6.505217 23.884822 17.466999 -4.341248 -36.021064 0.000000 0.000000 0.000000 -16.759747 -37.071288 15.698961 -24.285177 -53.738480 5.300352 97.775861 -50.653356 -54.311947 0.000000 0.000000 0.000000 22.231763 16.826004 11.967755 32.291218 55.957629 9.777429 -81.180359 44.028579 -29.260469 0.000000 0.000000 0.000000 
-0.209522 0.915409 -0.025842 4.495854 10.328925 5.988748 12.123937 -0.553273 -13.479908 -0.279400 -0.566690 12.429596 3.527864 13.320360 20.784768 0.000000 0.000000 0.000000 -12.310125 -0.549741 -21.891538 11.128996 -2.502791 12.731937 8.767268 8.104428 21.352502 0.000000 0.000000 0.000000 11.205495 -7.683102 39.246914 -3.442605 1.586652 -22.099656 -5.263425 6.168040 24.147716 16.981648 -4.083620 -36.100669 0.000000 0.000000 0.000000 -15.118892 -37.224918 15.430997 -21.270115 -55.489050 4.174569 98.040691 -47.880462 -51.596928 0.000000 0.000000 0.000000 21.503156 17.240582 12.051659 33.976776 57.097635 11.061221 -84.296390 45.909121 -32.331564 0.000000 0.000000 0.000000 
-0.215711 0.915455 -0.026085 4.552249 10.405227 5.943239 12.172156 -0.547208 -12.408942 0.243319 -0.550983 10.496770 3.287872 13.107900 21.210117 0.000000 0.000000 0.000000 -11.855884 -0.497747 -22.508616 10.910405 -2.547808 13.789578 8.756510 8.022556 21.470563 0.000000 0.000000 0.000000 11.140645 -7.595024 38.953683 -3.456764 1.601624 -21.650838 -5.539348 6.077271 23.741564 16.879064 -4.353151 -34.591417 0.000000 0.000000 0.000000 -13.405048 -37.197259 15.032141 -17.957012 -56.139923 2.709411 98.008993 -44.758008 -48.400760 0.000000 0.000000 0.000000 21.837149 17.639370 12.364005 34.824900 58.357457 11.980036 -85.904121 47.335007 -34.507730 0.000000 0.000000 0.000000 
-0.219531 0.914617 -0.027908 4.596933 10.842341 6.231094 12.733058 -0.550803 -12.803412 -0.316595 -0.433889 10.137086 3.048934 12.882037 21.325218 0.000000 0.000000 0.000000 -12.129756 -0.643360 -23.513556 11.616596 -2.873248 14.834318 8.661979 7.670719 21.944761 0.000000 0.000000 0.000000 10.599078 -7.490549 39.102840 -3.061195 1.506358 -22.005908 -5.644498 6.714232 24.033924 17.070802 -4.138534 -35.428316 0.000000 0.000000 0.000000 -10.526950 -37.718545 14.477853 -13.492597 -57.521240 0.518267 96.730838 -40.330447 -43.168949 0.000000 0.000000 0.000000 21.311731 18.185853 12.818603 35.989108 61.089950 13.804009 -86.772736 46.824218 -34.220170 0.000000 0.000000 0.000000 
-0.221286 0.913984 -0.031180 4.498666 10.985751 6.223346 12.916620 -0.549117 -12.988985 -0.274942 -0.434047 9.975496 2.969207 12.802539 21.318721 0.000000 0.000000 0.000000 -12.167038 -0.725676 -24.528105 11.920202 -3.114440 16.186658 8.752030 7.463484 22.642663 0.000000 0.000000 0.000000 10.385018 -7.506383 39.438088 -2.881648 1.463696 -22.111800 -5.747952 7.480136 24.058193 17.478252 -4.255584 -35.295185 0.000000 0.000000 0.000000 -9.377369 -38.615167 14.478111 -8.663012 -57.610278 -1.857776 94.591705 -36.652038 -38.305219 0.000000 0.000000 0.000000 20.899799 18.250392 12.969632 37.206303 64.678990 16.225263 -86.857311 46.362258 -33.650403 0.000000 0.000000 0.000000 
-0.221580 0.913722 -0.035208 4.590642 11.591146 6.472464 13.213062 -0.569864 -13.792721 -0.903920 -0.340335 10.137031 2.712467 12.546378 21.266707 0.000000 0.000000 0.000000 -12.247269 -0.858495 -25.465143 11.706100 -3.195933 17.134568 8.571780 7.071213 23.006574 0.000000 0.000000 0.000000 9.956101 -7.432866 39.418756 -2.785385 1.454158 -21.786951 -5.991431 7.849362 23.705059 17.538011 -3.985545 -36.100179 0.000000 0.000000 0.000000 -7.932485 -39.075431 14.252967 -3.931005 -58.143037 -4.266852 91.035987 -32.880240 -32.725006 0.000000 0.000000 0.000000 20.609256 18.903534 13.489974 35.827044 68.963521 17.490136 -84.203935 43.604328 -29.732340 0.000000 0.000000 0.000000 
-0.220968 0.914836 -0.039113 4.407360 12.555413 5.968293 13.232071 -0.594800 -13.344665 -0.669736 -0.347613 9.291623 2.141730 11.929273 21.163849 0.000000 0.000000 0.000000 -11.992224 -0.892315 -25.306693 11.284851 -3.196251 17.668876 8.328773 6.537222 23.601350 0.000000 0.000000 0.000000 9.793458 -7.567329 39.681472 -2.934206 1.506370 -22.092096 -5.907497 8.304033 23.887670 17.445329 -3.942180 -35.665345 0.000000 0.000000 0.000000 -7.508033 -40.564882 14.629923 -0.015568 -57.682530 -6.158448 87.202597 -28.787801 -27.253817 0.000000 0.000000 0.000000 19.542942 19.895909 13.941537 32.991206 72.569501 17.434823 -81.131296 39.181101 -24.653366 0.000000 0.000000 0.000000 
-0.219207 0.915739 -0.042742 4.060422 13.519058 5.614839 13.632963 -0.612206 -13.335349 -0.919445 -0.296898 8.906178 1.662154 11.398366 20.968741 0.000000 0.000000 0.000000 -11.740361 -0.923890 -25.166583 11.035190 -3.219150 17.917214 8.055575 5.992156 24.184506 0.000000 0.000000 0.000000 9.466408 -7.538970 39.511864 -3.127588 1.570577 -22.084931 -5.986729 8.836235 23.895304 17.306471 -3.808091 -35.334344 0.000000 0.000000 0.000000 -6.782009 -41.129273 14.515815 2.982351 -58.147827 -7.845946 83.106123 -26.261316 -23.496535 0.000000 0.000000 0.000000 18.432631 20.780765 14.330607 25.581392 75.870540 13.630858 -76.077403 33.739325 -18.701500 0.000000 0.000000 0.000000 
-0.215979 0.917273 -0.046043 3.543443 14.386129 4.929434 13.723912 -0.625873 -12.963144 -0.537189 -0.347408 8.563806 1.189983 10.847303 20.714851 0.000000 0.000000 0.000000 -11.369394 -0.874978 -24.440950 10.749518 -3.172037 17.731424 7.831673 5.505244 24.845265 0.000000 0.000000 0.000000 9.495970 -7.749862 39.823427 -3.627001 1.698859 -22.619277 -6.125829 9.411392 24.277258 18.183027 -4.399592 -34.304026 0.000000 0.000000 0.000000 -7.022592 -41.933771 14.722607 5.542469 -57.632878 -9.059708 80.729782 -24.233018 -21.110009 0.000000 0.000000 0.000000 17.180630 21.911501 14.680304 15.098937 78.067083 6.504035 -71.848638 28.296831 -13.971121 0.000000 0.000000 0.000000 
-0.210544 0.919161 -0.049547 3.123823 14.942662 4.200369 13.894935 -0.623963 -12.709379 -0.772083 -0.326116 8.737868 0.923471 10.497796 20.430046 0.000000 0.000000 0.000000 -11.082629 -0.824795 -23.780175 10.207555 -3.040580 17.736245 7.773126 5.185400 25.631939 0.000000 0.000000 0.000000 9.213555 -7.702370 39.848368 -4.260314 1.855657 -22.943403 -6.173627 10.138781 24.450997 18.274322 -4.474302 -33.710498 0.000000 0.000000 0.000000 -6.755853 -42.383336 14.651784 6.839072 -56.887783 -9.637213 79.374584 -24.410813 -21.048368 0.000000 0.000000 0.000000 16.217817 22.488008 14.830796 3.189905 78.748753 -2.480437 -68.453023 23.186664 -10.189927 0.000000 0.000000 0.000000 
